<svg width="839" height="1077" viewBox="0 0 839 1077" fill="none" xmlns="http://www.w3.org/2000/svg">
<g style="mix-blend-mode:difference" clip-path="url(#clip0_3_684)">
<path d="M5.24365 1079.02C32.1907 1080.14 78.5105 1090.29 134.589 1084.4C190.668 1078.51 216.159 1050.19 274.423 1050.75C332.687 1051.31 355.992 1085.69 414.256 1087.1C472.52 1088.5 495.826 1056.36 554.089 1057.48C612.353 1058.6 635.659 1091.92 693.923 1092.48C752.187 1093.04 804.624 1066.9 833.756 1060.17" stroke="url(#paint0_linear_3_684)" stroke-width="3.5" stroke-linecap="round"/>
<path d="M5.24365 1030.55C32.1907 1031.68 78.5105 1041.83 134.589 1035.94C190.668 1030.05 216.159 1001.72 274.423 1002.28C332.687 1002.84 355.992 1037.23 414.256 1038.63C472.52 1040.03 495.826 1007.89 554.089 1009.01C612.353 1010.14 635.659 1043.46 693.923 1044.02C752.187 1044.58 804.624 1018.44 833.756 1011.71" stroke="url(#paint1_linear_3_684)" stroke-width="3.5" stroke-linecap="round"/>
<path d="M5.24365 982.089C32.1907 983.211 78.5105 993.364 134.589 987.474C190.668 981.584 216.159 953.257 274.423 953.818C332.687 954.379 355.992 988.764 414.256 990.167C472.52 991.569 495.826 959.427 554.089 960.549C612.353 961.671 635.659 994.991 693.923 995.552C752.187 996.112 804.624 969.973 833.756 963.242" stroke="url(#paint2_linear_3_684)" stroke-width="3.5" stroke-linecap="round"/>
<path d="M5.24365 933.624C32.1907 934.746 78.5105 944.899 134.589 939.009C190.668 933.119 216.159 904.792 274.423 905.353C332.687 905.914 355.992 940.299 414.256 941.702C472.52 943.104 495.826 910.962 554.089 912.084C612.353 913.206 635.659 946.526 693.923 947.087C752.187 947.648 804.624 921.508 833.756 914.777" stroke="url(#paint3_linear_3_684)" stroke-width="3.5" stroke-linecap="round"/>
<path d="M5.24365 885.159C32.1907 886.281 78.5105 896.434 134.589 890.544C190.668 884.654 216.159 856.327 274.423 856.888C332.687 857.449 355.992 891.834 414.256 893.237C472.52 894.639 495.826 862.497 554.089 863.619C612.353 864.741 635.659 898.061 693.923 898.622C752.187 899.182 804.624 873.043 833.756 866.312" stroke="url(#paint4_linear_3_684)" stroke-width="3.5" stroke-linecap="round"/>
<path d="M5.24365 836.694C32.1907 837.816 78.5105 847.969 134.589 842.079C190.668 836.189 216.159 807.862 274.423 808.423C332.687 808.984 355.992 843.369 414.256 844.772C472.52 846.174 495.826 814.032 554.089 815.154C612.353 816.276 635.659 849.596 693.923 850.157C752.187 850.718 804.624 824.578 833.756 817.847" stroke="url(#paint5_linear_3_684)" stroke-width="3.5" stroke-linecap="round"/>
<path d="M5.24365 788.229C32.1907 789.351 78.5105 799.504 134.589 793.614C190.668 787.724 216.159 759.397 274.423 759.958C332.687 760.519 355.992 794.904 414.256 796.307C472.52 797.709 495.826 765.567 554.089 766.689C612.353 767.811 635.659 801.131 693.923 801.692C752.187 802.252 804.624 776.113 833.756 769.382" stroke="url(#paint6_linear_3_684)" stroke-width="3.5" stroke-linecap="round"/>
<path d="M5.24365 739.764C32.1907 740.886 78.5105 751.039 134.589 745.149C190.668 739.259 216.159 710.932 274.423 711.493C332.687 712.054 355.992 746.439 414.256 747.842C472.52 749.244 495.826 717.102 554.089 718.224C612.353 719.346 635.659 752.666 693.923 753.227C752.187 753.787 804.624 727.648 833.756 720.917" stroke="url(#paint7_linear_3_684)" stroke-width="3.5" stroke-linecap="round"/>
<path d="M5.24365 691.299C32.1907 692.421 78.5105 702.574 134.589 696.684C190.668 690.794 216.159 662.467 274.423 663.028C332.687 663.589 355.992 697.974 414.256 699.377C472.52 700.779 495.826 668.637 554.089 669.759C612.353 670.881 635.659 704.201 693.923 704.762C752.187 705.322 804.624 679.183 833.756 672.452" stroke="url(#paint8_linear_3_684)" stroke-width="3.5" stroke-linecap="round"/>
<path d="M5.24365 642.834C32.1907 643.956 78.5105 654.109 134.589 648.219C190.668 642.329 216.159 614.002 274.423 614.563C332.687 615.124 355.992 649.509 414.256 650.912C472.52 652.314 495.826 620.172 554.089 621.294C612.353 622.416 635.659 655.736 693.923 656.297C752.187 656.857 804.624 630.718 833.756 623.987" stroke="url(#paint9_linear_3_684)" stroke-width="3.5" stroke-linecap="round"/>
<path d="M5.24365 594.369C32.1907 595.491 78.5105 605.644 134.589 599.754C190.668 593.864 216.159 565.537 274.423 566.098C332.687 566.659 355.992 601.044 414.256 602.447C472.52 603.849 495.826 571.707 554.089 572.829C612.353 573.951 635.659 607.271 693.923 607.832C752.187 608.393 804.624 582.253 833.756 575.522" stroke="url(#paint10_linear_3_684)" stroke-width="3.5" stroke-linecap="round"/>
<path d="M5.24365 545.904C32.1907 547.026 78.5105 557.179 134.589 551.289C190.668 545.399 216.159 517.072 274.423 517.633C332.687 518.194 355.992 552.579 414.256 553.982C472.52 555.384 495.826 523.242 554.089 524.364C612.353 525.486 635.659 558.806 693.923 559.367C752.187 559.927 804.624 533.788 833.756 527.057" stroke="url(#paint11_linear_3_684)" stroke-width="3.5" stroke-linecap="round"/>
<path d="M5.24365 497.439C32.1907 498.561 78.5105 508.714 134.589 502.824C190.668 496.934 216.159 468.607 274.423 469.168C332.687 469.729 355.992 504.114 414.256 505.517C472.52 506.919 495.826 474.777 554.089 475.899C612.353 477.021 635.659 510.341 693.923 510.902C752.187 511.462 804.624 485.323 833.756 478.592" stroke="url(#paint12_linear_3_684)" stroke-width="3.5" stroke-linecap="round"/>
<path d="M5.24365 448.974C32.1907 450.096 78.5105 460.249 134.589 454.359C190.668 448.469 216.159 420.142 274.423 420.703C332.687 421.264 355.992 455.649 414.256 457.052C472.52 458.454 495.826 426.312 554.089 427.434C612.353 428.556 635.659 461.876 693.923 462.437C752.187 462.997 804.624 436.858 833.756 430.127" stroke="url(#paint13_linear_3_684)" stroke-width="3.5" stroke-linecap="round"/>
<path d="M5.24365 400.509C32.1907 401.631 78.5105 411.784 134.589 405.894C190.668 400.004 216.159 371.677 274.423 372.238C332.687 372.799 355.992 407.184 414.256 408.587C472.52 409.989 495.826 377.847 554.089 378.969C612.353 380.091 635.659 413.411 693.923 413.972C752.187 414.532 804.624 388.393 833.756 381.662" stroke="url(#paint14_linear_3_684)" stroke-width="3.5" stroke-linecap="round"/>
<path d="M5.24365 352.044C32.1907 353.166 78.5105 363.319 134.589 357.429C190.668 351.539 216.159 323.212 274.423 323.773C332.687 324.334 355.992 358.719 414.256 360.122C472.52 361.524 495.826 329.382 554.089 330.504C612.353 331.626 635.659 364.946 693.923 365.507C752.187 366.067 804.624 339.928 833.756 333.197" stroke="url(#paint15_linear_3_684)" stroke-width="3.5" stroke-linecap="round"/>
<path d="M5.24365 303.579C32.1907 304.701 78.5105 314.854 134.589 308.964C190.668 303.074 216.159 274.747 274.423 275.308C332.687 275.869 355.992 310.254 414.256 311.657C472.52 313.059 495.826 280.917 554.089 282.039C612.353 283.161 635.659 316.481 693.923 317.042C752.187 317.602 804.624 291.463 833.756 284.732" stroke="url(#paint16_linear_3_684)" stroke-width="3.5" stroke-linecap="round"/>
<path d="M5.24365 255.114C32.1907 256.236 78.5105 266.389 134.589 260.499C190.668 254.609 216.159 226.282 274.423 226.843C332.687 227.404 355.992 261.789 414.256 263.192C472.52 264.594 495.826 232.452 554.089 233.574C612.353 234.696 635.659 268.016 693.923 268.577C752.187 269.138 804.624 242.998 833.756 236.267" stroke="url(#paint17_linear_3_684)" stroke-width="3.5" stroke-linecap="round"/>
<path d="M5.24365 206.649C32.1907 207.771 78.5105 217.924 134.589 212.034C190.668 206.144 216.159 177.817 274.423 178.378C332.687 178.939 355.992 213.324 414.256 214.727C472.52 216.129 495.826 183.987 554.089 185.109C612.353 186.231 635.659 219.551 693.923 220.112C752.187 220.672 804.624 194.533 833.756 187.802" stroke="url(#paint18_linear_3_684)" stroke-width="3.5" stroke-linecap="round"/>
<path d="M5.24365 158.184C32.1907 159.306 78.5105 169.459 134.589 163.569C190.668 157.679 216.159 129.352 274.423 129.913C332.687 130.474 355.992 164.859 414.256 166.262C472.52 167.664 495.826 135.522 554.089 136.644C612.353 137.766 635.659 171.086 693.923 171.647C752.187 172.207 804.624 146.068 833.756 139.337" stroke="url(#paint19_linear_3_684)" stroke-width="3.5" stroke-linecap="round"/>
<path d="M5.24365 109.719C32.1907 110.841 78.5105 120.994 134.589 115.104C190.668 109.214 216.159 80.8869 274.423 81.4478C332.687 82.0087 355.992 116.394 414.256 117.797C472.52 119.199 495.826 87.0572 554.089 88.179C612.353 89.3009 635.659 122.621 693.923 123.182C752.187 123.742 804.624 97.6028 833.756 90.8715" stroke="url(#paint20_linear_3_684)" stroke-width="3.5" stroke-linecap="round"/>
<path d="M5.24365 61.254C32.1907 62.3759 78.5105 72.5289 134.589 66.639C190.668 60.7492 216.159 32.4219 274.423 32.9828C332.687 33.5437 355.992 67.9292 414.256 69.3315C472.52 70.7339 495.826 38.5922 554.089 39.714C612.353 40.8359 635.659 74.1556 693.923 74.7165C752.187 75.2775 804.624 49.1378 833.756 42.4065" stroke="url(#paint21_linear_3_684)" stroke-width="3.5" stroke-linecap="round"/>
<path d="M5.24365 12.7891C32.1907 13.9109 78.5105 24.0639 134.589 18.1741C190.668 12.2842 216.159 -16.0431 274.423 -15.4822C332.687 -14.9213 355.992 19.4642 414.256 20.8666C472.52 22.2689 495.826 -9.87283 554.089 -8.75095C612.353 -7.62908 635.659 25.6906 693.923 26.2516C752.187 26.8125 804.624 0.6728 833.756 -6.05845" stroke="url(#paint22_linear_3_684)" stroke-width="3.5" stroke-linecap="round"/>
</g>
<defs>
<linearGradient id="paint0_linear_3_684" x1="-16.7865" y1="-52124.8" x2="3235.67" y2="-52124.8" gradientUnits="userSpaceOnUse">
<stop stop-color="#090A11"/>
<stop offset="0.1" stop-color="#F1F0E1"/>
<stop offset="0.27" stop-color="#090A11"/>
</linearGradient>
<linearGradient id="paint1_linear_3_684" x1="-16.7865" y1="-52173.2" x2="3235.67" y2="-52173.2" gradientUnits="userSpaceOnUse">
<stop stop-color="#090A11"/>
<stop offset="0.1" stop-color="#F1F0E1"/>
<stop offset="0.27" stop-color="#090A11"/>
</linearGradient>
<linearGradient id="paint2_linear_3_684" x1="-16.7865" y1="-52221.7" x2="3235.67" y2="-52221.7" gradientUnits="userSpaceOnUse">
<stop stop-color="#090A11"/>
<stop offset="0.1" stop-color="#F1F0E1"/>
<stop offset="0.27" stop-color="#090A11"/>
</linearGradient>
<linearGradient id="paint3_linear_3_684" x1="-16.7865" y1="-52270.2" x2="3235.67" y2="-52270.2" gradientUnits="userSpaceOnUse">
<stop stop-color="#090A11"/>
<stop offset="0.1" stop-color="#F1F0E1"/>
<stop offset="0.27" stop-color="#090A11"/>
</linearGradient>
<linearGradient id="paint4_linear_3_684" x1="-16.7865" y1="-52318.6" x2="3235.67" y2="-52318.6" gradientUnits="userSpaceOnUse">
<stop stop-color="#090A11"/>
<stop offset="0.1" stop-color="#F1F0E1"/>
<stop offset="0.27" stop-color="#090A11"/>
</linearGradient>
<linearGradient id="paint5_linear_3_684" x1="-16.7865" y1="-52367.1" x2="3235.67" y2="-52367.1" gradientUnits="userSpaceOnUse">
<stop stop-color="#090A11"/>
<stop offset="0.1" stop-color="#F1F0E1"/>
<stop offset="0.27" stop-color="#090A11"/>
</linearGradient>
<linearGradient id="paint6_linear_3_684" x1="-16.7865" y1="-52415.6" x2="3235.67" y2="-52415.6" gradientUnits="userSpaceOnUse">
<stop stop-color="#090A11"/>
<stop offset="0.1" stop-color="#F1F0E1"/>
<stop offset="0.27" stop-color="#090A11"/>
</linearGradient>
<linearGradient id="paint7_linear_3_684" x1="-16.7865" y1="-52464" x2="3235.67" y2="-52464" gradientUnits="userSpaceOnUse">
<stop stop-color="#090A11"/>
<stop offset="0.1" stop-color="#F1F0E1"/>
<stop offset="0.27" stop-color="#090A11"/>
</linearGradient>
<linearGradient id="paint8_linear_3_684" x1="-16.7865" y1="-52512.5" x2="3235.67" y2="-52512.5" gradientUnits="userSpaceOnUse">
<stop stop-color="#090A11"/>
<stop offset="0.1" stop-color="#F1F0E1"/>
<stop offset="0.27" stop-color="#090A11"/>
</linearGradient>
<linearGradient id="paint9_linear_3_684" x1="-16.7865" y1="-52561" x2="3235.67" y2="-52561" gradientUnits="userSpaceOnUse">
<stop stop-color="#090A11"/>
<stop offset="0.1" stop-color="#F1F0E1"/>
<stop offset="0.27" stop-color="#090A11"/>
</linearGradient>
<linearGradient id="paint10_linear_3_684" x1="-16.7865" y1="-52609.4" x2="3235.67" y2="-52609.4" gradientUnits="userSpaceOnUse">
<stop stop-color="#090A11"/>
<stop offset="0.1" stop-color="#F1F0E1"/>
<stop offset="0.27" stop-color="#090A11"/>
</linearGradient>
<linearGradient id="paint11_linear_3_684" x1="-16.7865" y1="-52657.9" x2="3235.67" y2="-52657.9" gradientUnits="userSpaceOnUse">
<stop stop-color="#090A11"/>
<stop offset="0.1" stop-color="#F1F0E1"/>
<stop offset="0.27" stop-color="#090A11"/>
</linearGradient>
<linearGradient id="paint12_linear_3_684" x1="-16.7865" y1="-52706.4" x2="3235.67" y2="-52706.4" gradientUnits="userSpaceOnUse">
<stop stop-color="#090A11"/>
<stop offset="0.1" stop-color="#F1F0E1"/>
<stop offset="0.27" stop-color="#090A11"/>
</linearGradient>
<linearGradient id="paint13_linear_3_684" x1="-16.7865" y1="-52754.8" x2="3235.67" y2="-52754.8" gradientUnits="userSpaceOnUse">
<stop stop-color="#090A11"/>
<stop offset="0.1" stop-color="#F1F0E1"/>
<stop offset="0.27" stop-color="#090A11"/>
</linearGradient>
<linearGradient id="paint14_linear_3_684" x1="-16.7865" y1="-52803.3" x2="3235.67" y2="-52803.3" gradientUnits="userSpaceOnUse">
<stop stop-color="#090A11"/>
<stop offset="0.1" stop-color="#F1F0E1"/>
<stop offset="0.27" stop-color="#090A11"/>
</linearGradient>
<linearGradient id="paint15_linear_3_684" x1="-16.7865" y1="-52851.8" x2="3235.67" y2="-52851.8" gradientUnits="userSpaceOnUse">
<stop stop-color="#090A11"/>
<stop offset="0.1" stop-color="#F1F0E1"/>
<stop offset="0.27" stop-color="#090A11"/>
</linearGradient>
<linearGradient id="paint16_linear_3_684" x1="-16.7865" y1="-52900.2" x2="3235.67" y2="-52900.2" gradientUnits="userSpaceOnUse">
<stop stop-color="#090A11"/>
<stop offset="0.1" stop-color="#F1F0E1"/>
<stop offset="0.27" stop-color="#090A11"/>
</linearGradient>
<linearGradient id="paint17_linear_3_684" x1="-16.7865" y1="-52948.7" x2="3235.67" y2="-52948.7" gradientUnits="userSpaceOnUse">
<stop stop-color="#090A11"/>
<stop offset="0.1" stop-color="#F1F0E1"/>
<stop offset="0.27" stop-color="#090A11"/>
</linearGradient>
<linearGradient id="paint18_linear_3_684" x1="-16.7865" y1="-52997.2" x2="3235.67" y2="-52997.2" gradientUnits="userSpaceOnUse">
<stop stop-color="#090A11"/>
<stop offset="0.1" stop-color="#F1F0E1"/>
<stop offset="0.27" stop-color="#090A11"/>
</linearGradient>
<linearGradient id="paint19_linear_3_684" x1="-16.7865" y1="-53045.6" x2="3235.67" y2="-53045.6" gradientUnits="userSpaceOnUse">
<stop stop-color="#090A11"/>
<stop offset="0.1" stop-color="#F1F0E1"/>
<stop offset="0.27" stop-color="#090A11"/>
</linearGradient>
<linearGradient id="paint20_linear_3_684" x1="-16.7865" y1="-53094.1" x2="3235.67" y2="-53094.1" gradientUnits="userSpaceOnUse">
<stop stop-color="#090A11"/>
<stop offset="0.1" stop-color="#F1F0E1"/>
<stop offset="0.27" stop-color="#090A11"/>
</linearGradient>
<linearGradient id="paint21_linear_3_684" x1="-16.7865" y1="-53142.5" x2="3235.67" y2="-53142.5" gradientUnits="userSpaceOnUse">
<stop stop-color="#090A11"/>
<stop offset="0.1" stop-color="#F1F0E1"/>
<stop offset="0.27" stop-color="#090A11"/>
</linearGradient>
<linearGradient id="paint22_linear_3_684" x1="-16.7865" y1="-53191" x2="3235.67" y2="-53191" gradientUnits="userSpaceOnUse">
<stop stop-color="#090A11"/>
<stop offset="0.1" stop-color="#F1F0E1"/>
<stop offset="0.27" stop-color="#090A11"/>
</linearGradient>
<clipPath id="clip0_3_684">
<rect width="839" height="1077" fill="white"/>
</clipPath>
</defs>
</svg>
