<svg width="100" height="100" viewBox="0 0 100 100" fill="none" xmlns="http://www.w3.org/2000/svg">
<rect x="1" y="1" width="98" height="98" rx="2" stroke="#F1F0E1" stroke-width="2"/>
<path d="M30 43.7179V37.8995C30 36.7864 30.6162 35.7648 31.6008 35.2457L65.6008 17.3194C67.5986 16.2661 70 17.7147 70 19.9732V20.8185C70 21.9316 69.3838 22.9531 68.3992 23.4722L37.234 39.9038M30 43.7179L37.234 39.9038M30 43.7179L61.9149 60.5449M37.234 39.9038L67.5481 55.8867C68.5327 56.4059 69.1489 57.4274 69.1489 58.5405V64.359M69.1489 64.359L61.9149 60.5449M69.1489 64.359L34.3992 82.6806C32.4014 83.7339 30 82.2853 30 80.0268V79.1815C30 78.0685 30.6163 77.0469 31.6008 76.5278L61.9149 60.5449" stroke="#F1F0E1" stroke-width="3"/>
</svg>
